<svg width="1920" height="1088" viewBox="0 0 1920 1088" fill="none" xmlns="http://www.w3.org/2000/svg">
<g filter="url(#filter0_d_46439_2597)">
<path opacity="0.2" d="M1.5 -2.5H1920.5V1076.5H1.5V-2.5Z" fill="url(#paint0_linear_46439_2597)" stroke="black"/>
<g clip-path="url(#clip0_46439_2597)">
<g opacity="0.2" clip-path="url(#clip1_46439_2597)">
<path d="M201.097 825C122.544 825 59 888.544 59 967.097C59 1045.46 122.544 1109.19 201.097 1109.19C279.456 1109.19 343.195 1045.65 343.195 967.097C343 888.544 279.456 825 201.097 825ZM201.097 1100.03C127.612 1100.03 68.1613 1040.58 68.1613 967.097C68.1613 893.612 127.612 834.161 201.097 834.161C274.583 834.161 334.034 893.612 334.034 967.097C334.034 1040.39 274.388 1100.03 201.097 1100.03Z" fill="white"/>
<path d="M201.099 855.603C139.699 855.603 89.7988 905.502 89.7988 966.902C89.7988 1028.3 139.699 1078.2 201.099 1078.2C262.499 1078.2 312.399 1028.5 312.399 967.097C312.399 905.502 262.499 855.603 201.099 855.603ZM201.099 1061.24C149.055 1061.24 106.757 1018.95 106.757 966.902C106.757 914.859 149.055 872.561 201.099 872.561C253.143 872.561 295.441 914.859 295.441 966.902C295.441 1018.95 253.143 1061.24 201.099 1061.24Z" fill="white"/>
<path d="M201.098 904.527C166.597 904.527 138.528 932.596 138.528 967.097C138.528 1001.6 166.402 1029.67 201.098 1029.67C235.599 1029.67 263.668 1001.6 263.668 967.097C263.473 932.596 235.599 904.527 201.098 904.527ZM201.098 1000.62C182.58 1000.62 167.572 985.614 167.572 967.097C167.572 948.579 182.58 933.571 201.098 933.571C219.616 933.571 234.624 948.579 234.624 967.097C234.624 985.614 219.616 1000.62 201.098 1000.62Z" fill="white"/>
</g>
<g opacity="0.3">
<path d="M1932.81 4.22117L1942.47 13.8799L1916.78 39.5633L1891.1 13.8799L1900.68 4.29434L1916.71 20.319L1932.81 4.22117Z" fill="white"/>
<path d="M1932.81 -30.4614L1942.39 -20.8759L1916.71 4.80749L1891.1 -20.8027L1900.76 -30.4614L1916.78 -14.4368L1932.81 -30.4614Z" fill="white"/>
</g>
<path opacity="0.3" d="M965 737.553C951.071 751.482 928.377 751.482 914.447 737.553C900.518 723.623 900.518 700.929 914.447 687L965 737.553Z" fill="white"/>
<g opacity="0.3">
<path d="M1019.49 458.89C1030.21 458.89 1038.94 450.165 1038.94 439.453C1038.94 428.742 1030.21 420.017 1019.49 420.017L1019.49 458.89Z" fill="white"/>
<path d="M989.141 458.89C999.861 458.89 1008.59 450.165 1008.59 439.453C1008.59 428.742 999.861 420.017 989.141 420.017L989.141 458.89Z" fill="white"/>
<path d="M958.796 458.89C969.515 458.89 978.247 450.165 978.247 439.453C978.247 428.742 969.515 420.017 958.796 420.017V458.89Z" fill="white"/>
</g>
<g opacity="0.3">
<path d="M317.301 73.9214L317.301 62.0004L349 62.0004L349 93.6992L337.169 93.6992L337.169 73.9214L317.301 73.9214Z" fill="white"/>
<path d="M295.898 95.3247L295.898 83.4941L327.597 83.4941L327.597 115.103L315.676 115.103L315.676 95.3247L295.898 95.3247Z" fill="white"/>
<path d="M274.495 116.819L274.495 104.898L306.103 104.898L306.103 136.597L294.272 136.597L294.272 116.819L274.495 116.819Z" fill="white"/>
<path d="M253 138.222L253 126.301L284.699 126.301L284.699 158L272.778 158L272.778 138.222L253 138.222Z" fill="white"/>
</g>
</g>
<g filter="url(#filter1_d_46439_2597)">
<path opacity="0.2" d="M0 0H1920V1080H0V0Z" fill="url(#paint1_linear_46439_2597)"/>
<g clip-path="url(#clip2_46439_2597)">
<g opacity="0.2" clip-path="url(#clip3_46439_2597)">
<path d="M201.097 822C122.544 822 59 885.544 59 964.097C59 1042.46 122.544 1106.19 201.097 1106.19C279.456 1106.19 343.195 1042.65 343.195 964.097C343 885.544 279.456 822 201.097 822ZM201.097 1097.03C127.612 1097.03 68.1613 1037.58 68.1613 964.097C68.1613 890.612 127.612 831.161 201.097 831.161C274.583 831.161 334.034 890.612 334.034 964.097C334.034 1037.39 274.388 1097.03 201.097 1097.03Z" fill="white"/>
<path d="M201.099 852.603C139.699 852.603 89.7988 902.502 89.7988 963.902C89.7988 1025.3 139.699 1075.2 201.099 1075.2C262.499 1075.2 312.399 1025.5 312.399 964.097C312.399 902.502 262.499 852.603 201.099 852.603ZM201.099 1058.24C149.055 1058.24 106.757 1015.95 106.757 963.902C106.757 911.859 149.055 869.561 201.099 869.561C253.143 869.561 295.441 911.859 295.441 963.902C295.441 1015.95 253.143 1058.24 201.099 1058.24Z" fill="white"/>
<path d="M201.098 901.527C166.597 901.527 138.528 929.596 138.528 964.097C138.528 998.598 166.402 1026.67 201.098 1026.67C235.599 1026.67 263.668 998.598 263.668 964.097C263.473 929.596 235.599 901.527 201.098 901.527ZM201.098 997.623C182.58 997.623 167.572 982.614 167.572 964.097C167.572 945.579 182.58 930.571 201.098 930.571C219.616 930.571 234.624 945.579 234.624 964.097C234.624 982.614 219.616 997.623 201.098 997.623Z" fill="white"/>
</g>
<g opacity="0.3">
<path d="M1932.81 1.22117L1942.47 10.8799L1916.78 36.5633L1891.1 10.8799L1900.68 1.29434L1916.71 17.319L1932.81 1.22117Z" fill="white"/>
<path d="M1932.81 -33.4614L1942.39 -23.8759L1916.71 1.80749L1891.1 -23.8027L1900.76 -33.4614L1916.78 -17.4368L1932.81 -33.4614Z" fill="white"/>
</g>
<path opacity="0.3" d="M965 734.553C951.071 748.482 928.377 748.482 914.447 734.553C900.518 720.623 900.518 697.929 914.447 684L965 734.553Z" fill="white"/>
<g opacity="0.3">
<rect width="88" height="47" transform="translate(953 413)" fill="#FDB9AA"/>
<path d="M1019.49 455.89C1030.21 455.89 1038.94 447.165 1038.94 436.453C1038.94 425.742 1030.21 417.017 1019.49 417.017L1019.49 455.89Z" fill="white"/>
<path d="M989.141 455.89C999.861 455.89 1008.59 447.165 1008.59 436.453C1008.59 425.742 999.861 417.017 989.141 417.017L989.141 455.89Z" fill="white"/>
<path d="M958.796 455.89C969.515 455.89 978.247 447.165 978.247 436.453C978.247 425.742 969.515 417.017 958.796 417.017V455.89Z" fill="white"/>
</g>
<g opacity="0.3">
<path d="M317.301 70.9214L317.301 59.0004L349 59.0004L349 90.6992L337.169 90.6992L337.169 70.9214L317.301 70.9214Z" fill="white"/>
<path d="M295.898 92.3247L295.898 80.4941L327.597 80.4941L327.597 112.103L315.676 112.103L315.676 92.3247L295.898 92.3247Z" fill="white"/>
<path d="M274.495 113.819L274.495 101.898L306.103 101.898L306.103 133.597L294.272 133.597L294.272 113.819L274.495 113.819Z" fill="white"/>
<path d="M253 135.222L253 123.301L284.699 123.301L284.699 155L272.778 155L272.778 135.222L253 135.222Z" fill="white"/>
</g>
</g>
</g>
</g>
<defs>
<filter id="filter0_d_46439_2597" x="-4" y="-74" width="2099" height="1162" filterUnits="userSpaceOnUse" color-interpolation-filters="sRGB">
<feFlood flood-opacity="0" result="BackgroundImageFix"/>
<feColorMatrix in="SourceAlpha" type="matrix" values="0 0 0 0 0 0 0 0 0 0 0 0 0 0 0 0 0 0 127 0" result="hardAlpha"/>
<feOffset dy="4"/>
<feGaussianBlur stdDeviation="2"/>
<feComposite in2="hardAlpha" operator="out"/>
<feColorMatrix type="matrix" values="0 0 0 0 0 0 0 0 0 0 0 0 0 0 0 0 0 0 0.25 0"/>
<feBlend mode="normal" in2="BackgroundImageFix" result="effect1_dropShadow_46439_2597"/>
<feBlend mode="normal" in="SourceGraphic" in2="effect1_dropShadow_46439_2597" result="shape"/>
</filter>
<filter id="filter1_d_46439_2597" x="-4" y="-74" width="2099" height="1162" filterUnits="userSpaceOnUse" color-interpolation-filters="sRGB">
<feFlood flood-opacity="0" result="BackgroundImageFix"/>
<feColorMatrix in="SourceAlpha" type="matrix" values="0 0 0 0 0 0 0 0 0 0 0 0 0 0 0 0 0 0 127 0" result="hardAlpha"/>
<feOffset dy="4"/>
<feGaussianBlur stdDeviation="2"/>
<feComposite in2="hardAlpha" operator="out"/>
<feColorMatrix type="matrix" values="0 0 0 0 0 0 0 0 0 0 0 0 0 0 0 0 0 0 0.25 0"/>
<feBlend mode="normal" in2="BackgroundImageFix" result="effect1_dropShadow_46439_2597"/>
<feBlend mode="normal" in="SourceGraphic" in2="effect1_dropShadow_46439_2597" result="shape"/>
</filter>
<linearGradient id="paint0_linear_46439_2597" x1="0.999928" y1="1077" x2="1317.78" y2="-505.069" gradientUnits="userSpaceOnUse">
<stop stop-color="#FCC5A6"/>
<stop offset="1" stop-color="#F75E05"/>
</linearGradient>
<linearGradient id="paint1_linear_46439_2597" x1="-7.15256e-05" y1="1080" x2="1316.78" y2="-502.069" gradientUnits="userSpaceOnUse">
<stop stop-color="#FF3F3A"/>
<stop offset="1" stop-color="#F75E05"/>
</linearGradient>
<clipPath id="clip0_46439_2597">
<rect width="1920" height="1080" fill="white" transform="translate(171 -71)"/>
</clipPath>
<clipPath id="clip1_46439_2597">
<rect width="284" height="284" fill="white" transform="translate(59 825)"/>
</clipPath>
<clipPath id="clip2_46439_2597">
<rect width="1920" height="1080" fill="white" transform="translate(171 -74)"/>
</clipPath>
<clipPath id="clip3_46439_2597">
<rect width="284" height="284" fill="white" transform="translate(59 822)"/>
</clipPath>
</defs>
</svg>
