<svg width="1920" height="983" viewBox="0 0 1920 983" fill="none" xmlns="http://www.w3.org/2000/svg">
<rect opacity="0.2" y="133" width="1920" height="850" fill="url(#paint0_linear_2495_2544)"/>
<g opacity="0.8" clip-path="url(#clip0_2495_2544)">
<path d="M91.9073 821.537C90.6208 821.537 89.6559 820.565 89.6559 819.268C89.6559 817.972 90.6208 817 91.9073 817C93.1938 817 94.1587 817.972 94.1587 819.268C94.1587 820.565 93.0866 821.537 91.9073 821.537Z" fill="white"/>
<path d="M91.9073 840.871C90.6208 840.871 89.6559 839.899 89.6559 838.602C89.6559 837.306 90.6208 836.334 91.9073 836.334C93.1938 836.334 94.1587 837.306 94.1587 838.602C94.1587 839.791 93.0866 840.871 91.9073 840.871Z" fill="white"/>
<path d="M91.9073 860.099C90.6208 860.099 89.6559 859.127 89.6559 857.831C89.6559 856.535 90.6208 855.562 91.9073 855.562C93.1938 855.562 94.1587 856.535 94.1587 857.831C94.1587 859.127 93.0866 860.099 91.9073 860.099Z" fill="white"/>
<path d="M91.9073 879.433C90.6208 879.433 89.6559 878.461 89.6559 877.165C89.6559 875.869 90.6208 874.896 91.9073 874.896C93.1938 874.896 94.1587 875.869 94.1587 877.165C94.1587 878.461 93.0866 879.433 91.9073 879.433Z" fill="white"/>
<path d="M91.9073 898.769C90.6208 898.769 89.6559 897.797 89.6559 896.501C89.6559 895.205 90.6208 894.232 91.9073 894.232C93.1938 894.232 94.1587 895.205 94.1587 896.501C94.1587 897.689 93.0866 898.769 91.9073 898.769Z" fill="white"/>
<path d="M91.9073 918.103C90.6208 918.103 89.6559 917.131 89.6559 915.835C89.6559 914.539 90.6208 913.566 91.9073 913.566C93.1938 913.566 94.1587 914.539 94.1587 915.835C94.1587 917.131 93.0866 918.103 91.9073 918.103Z" fill="white"/>
<path d="M91.9073 937.33C90.6208 937.33 89.6559 936.358 89.6559 935.061C89.6559 933.765 90.6208 932.793 91.9073 932.793C93.1938 932.793 94.1587 933.765 94.1587 935.061C94.1587 936.358 93.0866 937.33 91.9073 937.33Z" fill="white"/>
<path d="M91.9073 956.666C90.6208 956.666 89.6559 955.693 89.6559 954.397C89.6559 953.101 90.6208 952.129 91.9073 952.129C93.1938 952.129 94.1587 953.101 94.1587 954.397C94.1587 955.693 93.0866 956.666 91.9073 956.666Z" fill="white"/>
<path d="M91.9073 976C90.6208 976 89.6559 975.027 89.6559 973.731C89.6559 972.435 90.6208 971.463 91.9073 971.463C93.1938 971.463 94.1587 972.435 94.1587 973.731C94.1587 974.919 93.0866 976 91.9073 976Z" fill="white"/>
<path d="M75.9337 821.537C74.6472 821.537 73.6823 820.565 73.6823 819.268C73.6823 817.972 74.6472 817 75.9337 817C77.2202 817 78.1851 817.972 78.1851 819.268C78.1851 820.565 77.2202 821.537 75.9337 821.537Z" fill="white"/>
<path d="M75.9337 840.871C74.6472 840.871 73.6823 839.899 73.6823 838.602C73.6823 837.306 74.6472 836.334 75.9337 836.334C77.2202 836.334 78.1851 837.306 78.1851 838.602C78.1851 839.791 77.2202 840.871 75.9337 840.871Z" fill="white"/>
<path d="M75.9337 860.099C74.6472 860.099 73.6823 859.127 73.6823 857.831C73.6823 856.535 74.6472 855.562 75.9337 855.562C77.2202 855.562 78.1851 856.535 78.1851 857.831C78.1851 859.127 77.2202 860.099 75.9337 860.099Z" fill="white"/>
<path d="M75.9337 879.433C74.6472 879.433 73.6823 878.461 73.6823 877.165C73.6823 875.869 74.6472 874.896 75.9337 874.896C77.2202 874.896 78.1851 875.869 78.1851 877.165C78.1851 878.461 77.2202 879.433 75.9337 879.433Z" fill="white"/>
<path d="M75.9337 898.769C74.6472 898.769 73.6823 897.797 73.6823 896.501C73.6823 895.205 74.6472 894.232 75.9337 894.232C77.2202 894.232 78.1851 895.205 78.1851 896.501C78.1851 897.689 77.2202 898.769 75.9337 898.769Z" fill="white"/>
<path d="M75.9337 918.103C74.6472 918.103 73.6823 917.131 73.6823 915.835C73.6823 914.539 74.6472 913.566 75.9337 913.566C77.2202 913.566 78.1851 914.539 78.1851 915.835C78.1851 917.131 77.2202 918.103 75.9337 918.103Z" fill="white"/>
<path d="M75.9337 937.33C74.6472 937.33 73.6823 936.358 73.6823 935.061C73.6823 933.765 74.6472 932.793 75.9337 932.793C77.2202 932.793 78.1851 933.765 78.1851 935.061C78.1851 936.358 77.2202 937.33 75.9337 937.33Z" fill="white"/>
<path d="M75.9337 956.666C74.6472 956.666 73.6823 955.693 73.6823 954.397C73.6823 953.101 74.6472 952.129 75.9337 952.129C77.2202 952.129 78.1851 953.101 78.1851 954.397C78.1851 955.693 77.2202 956.666 75.9337 956.666Z" fill="white"/>
<path d="M75.9337 976C74.6472 976 73.6823 975.027 73.6823 973.731C73.6823 972.435 74.6472 971.463 75.9337 971.463C77.2202 971.463 78.1851 972.435 78.1851 973.731C78.1851 974.919 77.2202 976 75.9337 976Z" fill="white"/>
<path d="M123.749 821.537C122.462 821.537 121.497 820.565 121.497 819.268C121.497 817.972 122.462 817 123.749 817C125.035 817 126 817.972 126 819.268C126 820.565 125.035 821.537 123.749 821.537Z" fill="white"/>
<path d="M123.749 840.873C122.462 840.873 121.497 839.9 121.497 838.604C121.497 837.308 122.462 836.336 123.749 836.336C125.035 836.336 126 837.308 126 838.604C126 839.792 125.035 840.873 123.749 840.873Z" fill="white"/>
<path d="M123.749 860.099C122.462 860.099 121.497 859.127 121.497 857.831C121.497 856.535 122.462 855.562 123.749 855.562C125.035 855.562 126 856.643 126 857.831C126 859.127 125.035 860.099 123.749 860.099Z" fill="white"/>
<path d="M123.749 879.433C122.462 879.433 121.497 878.461 121.497 877.165C121.497 875.869 122.462 874.896 123.749 874.896C125.035 874.896 126 875.977 126 877.165C126 878.353 125.035 879.433 123.749 879.433Z" fill="white"/>
<path d="M123.749 898.769C122.462 898.769 121.497 897.797 121.497 896.501C121.497 895.205 122.462 894.232 123.749 894.232C125.035 894.232 126 895.205 126 896.501C126 897.689 125.035 898.769 123.749 898.769Z" fill="white"/>
<path d="M123.749 918.103C122.462 918.103 121.497 917.131 121.497 915.835C121.497 914.539 122.462 913.566 123.749 913.566C125.035 913.566 126 914.539 126 915.835C126 917.131 125.035 918.103 123.749 918.103Z" fill="white"/>
<path d="M123.749 937.33C122.462 937.33 121.497 936.358 121.497 935.061C121.497 933.765 122.462 932.793 123.749 932.793C125.035 932.793 126 933.765 126 935.061C126 936.358 125.035 937.33 123.749 937.33Z" fill="white"/>
<path d="M123.749 956.666C122.462 956.666 121.497 955.693 121.497 954.397C121.497 953.101 122.462 952.129 123.749 952.129C125.035 952.129 126 953.101 126 954.397C126 955.693 125.035 956.666 123.749 956.666Z" fill="white"/>
<path d="M123.749 976C122.462 976 121.497 975.027 121.497 973.731C121.497 972.435 122.462 971.463 123.749 971.463C125.035 971.463 126 972.435 126 973.731C126 974.919 125.035 976 123.749 976Z" fill="white"/>
<path d="M107.774 821.537C106.488 821.537 105.523 820.565 105.523 819.268C105.523 817.972 106.595 817 107.774 817C109.061 817 110.026 817.972 110.026 819.268C110.026 820.565 109.061 821.537 107.774 821.537Z" fill="white"/>
<path d="M107.774 840.871C106.488 840.871 105.523 839.899 105.523 838.602C105.523 837.306 106.488 836.334 107.774 836.334C109.061 836.334 110.026 837.306 110.026 838.602C110.026 839.791 109.061 840.871 107.774 840.871Z" fill="white"/>
<path d="M107.774 860.099C106.488 860.099 105.523 859.127 105.523 857.831C105.523 856.535 106.488 855.562 107.774 855.562C109.061 855.562 110.026 856.535 110.026 857.831C110.026 859.127 109.061 860.099 107.774 860.099Z" fill="white"/>
<path d="M107.774 879.433C106.488 879.433 105.523 878.461 105.523 877.165C105.523 875.869 106.488 874.896 107.774 874.896C109.061 874.896 110.026 875.869 110.026 877.165C110.026 878.461 109.061 879.433 107.774 879.433Z" fill="white"/>
<path d="M107.774 898.769C106.488 898.769 105.523 897.797 105.523 896.501C105.523 895.205 106.488 894.232 107.774 894.232C109.061 894.232 110.026 895.205 110.026 896.501C110.026 897.689 109.061 898.769 107.774 898.769Z" fill="white"/>
<path d="M107.774 918.103C106.488 918.103 105.523 917.131 105.523 915.835C105.523 914.539 106.488 913.566 107.774 913.566C109.061 913.566 110.026 914.539 110.026 915.835C110.026 917.131 109.061 918.103 107.774 918.103Z" fill="white"/>
<path d="M107.774 937.33C106.488 937.33 105.523 936.358 105.523 935.061C105.523 933.765 106.488 932.793 107.774 932.793C109.061 932.793 110.026 933.765 110.026 935.061C110.026 936.358 109.061 937.33 107.774 937.33Z" fill="white"/>
<path d="M107.774 956.666C106.488 956.666 105.523 955.693 105.523 954.397C105.523 953.101 106.488 952.129 107.774 952.129C109.061 952.129 110.026 953.101 110.026 954.397C110.026 955.693 109.061 956.666 107.774 956.666Z" fill="white"/>
<path d="M107.774 976C106.488 976 105.523 975.027 105.523 973.731C105.523 972.435 106.488 971.463 107.774 971.463C109.061 971.463 110.026 972.435 110.026 973.731C110.026 974.919 109.061 976 107.774 976Z" fill="white"/>
<path d="M60.0665 821.537C58.78 821.537 57.8151 820.565 57.8151 819.268C57.8151 817.972 58.78 817 60.0665 817C61.353 817 62.3179 817.972 62.3179 819.268C62.3179 820.565 61.2458 821.537 60.0665 821.537Z" fill="white"/>
<path d="M60.0665 840.871C58.78 840.871 57.8151 839.899 57.8151 838.602C57.8151 837.306 58.78 836.334 60.0665 836.334C61.353 836.334 62.3179 837.306 62.3179 838.602C62.3179 839.791 61.2458 840.871 60.0665 840.871Z" fill="white"/>
<path d="M60.0665 860.099C58.78 860.099 57.8151 859.127 57.8151 857.831C57.8151 856.535 58.78 855.562 60.0665 855.562C61.353 855.562 62.3179 856.535 62.3179 857.831C62.3179 859.127 61.2458 860.099 60.0665 860.099Z" fill="white"/>
<path d="M60.0665 879.433C58.78 879.433 57.8151 878.461 57.8151 877.165C57.8151 875.869 58.78 874.896 60.0665 874.896C61.353 874.896 62.3179 875.869 62.3179 877.165C62.3179 878.461 61.2458 879.433 60.0665 879.433Z" fill="white"/>
<path d="M60.0665 898.769C58.78 898.769 57.8151 897.797 57.8151 896.501C57.8151 895.205 58.78 894.232 60.0665 894.232C61.353 894.232 62.3179 895.205 62.3179 896.501C62.3179 897.689 61.2458 898.769 60.0665 898.769Z" fill="white"/>
<path d="M60.0665 918.103C58.78 918.103 57.8151 917.131 57.8151 915.835C57.8151 914.539 58.78 913.566 60.0665 913.566C61.353 913.566 62.3179 914.539 62.3179 915.835C62.3179 917.131 61.2458 918.103 60.0665 918.103Z" fill="white"/>
<path d="M60.0665 937.33C58.78 937.33 57.8151 936.358 57.8151 935.061C57.8151 933.765 58.78 932.793 60.0665 932.793C61.353 932.793 62.3179 933.765 62.3179 935.061C62.3179 936.358 61.2458 937.33 60.0665 937.33Z" fill="white"/>
<path d="M60.0665 956.666C58.78 956.666 57.8151 955.693 57.8151 954.397C57.8151 953.101 58.78 952.129 60.0665 952.129C61.353 952.129 62.3179 953.101 62.3179 954.397C62.3179 955.693 61.2458 956.666 60.0665 956.666Z" fill="white"/>
<path d="M60.0665 976C58.78 976 57.8151 975.027 57.8151 973.731C57.8151 972.435 58.78 971.463 60.0665 971.463C61.353 971.463 62.3179 972.435 62.3179 973.731C62.3179 974.919 61.2458 976 60.0665 976Z" fill="white"/>
<path d="M44.0924 821.537C42.8059 821.537 41.841 820.565 41.841 819.268C41.841 817.972 42.8059 817 44.0924 817C45.3789 817 46.3437 817.972 46.3437 819.268C46.3437 820.565 45.3789 821.537 44.0924 821.537Z" fill="white"/>
<path d="M44.0924 840.871C42.8059 840.871 41.841 839.899 41.841 838.602C41.841 837.306 42.8059 836.334 44.0924 836.334C45.3789 836.334 46.3437 837.306 46.3437 838.602C46.3437 839.791 45.3789 840.871 44.0924 840.871Z" fill="white"/>
<path d="M44.0924 860.099C42.8059 860.099 41.841 859.127 41.841 857.831C41.841 856.535 42.8059 855.562 44.0924 855.562C45.3789 855.562 46.3437 856.535 46.3437 857.831C46.3437 859.127 45.3789 860.099 44.0924 860.099Z" fill="white"/>
<path d="M41.841 877.165C41.841 878.418 42.849 879.433 44.0924 879.433C45.3358 879.433 46.3437 878.418 46.3437 877.165C46.3437 875.912 45.3358 874.896 44.0924 874.896C42.849 874.896 41.841 875.912 41.841 877.165Z" fill="white"/>
<path d="M44.0924 898.769C42.8059 898.769 41.841 897.797 41.841 896.501C41.841 895.205 42.8059 894.232 44.0924 894.232C45.3789 894.232 46.3437 895.205 46.3437 896.501C46.3437 897.689 45.3789 898.769 44.0924 898.769Z" fill="white"/>
<path d="M44.0924 918.103C42.8059 918.103 41.841 917.131 41.841 915.835C41.841 914.539 42.8059 913.566 44.0924 913.566C45.3789 913.566 46.3437 914.539 46.3437 915.835C46.3437 917.131 45.3789 918.103 44.0924 918.103Z" fill="white"/>
<path d="M44.0924 937.33C42.8059 937.33 41.841 936.358 41.841 935.061C41.841 933.765 42.8059 932.793 44.0924 932.793C45.3789 932.793 46.3437 933.765 46.3437 935.061C46.3437 936.358 45.3789 937.33 44.0924 937.33Z" fill="white"/>
<path d="M41.841 954.397C41.841 955.65 42.849 956.666 44.0924 956.666C45.3358 956.666 46.3437 955.65 46.3437 954.397C46.3437 953.144 45.3358 952.129 44.0924 952.129C42.849 952.129 41.841 953.144 41.841 954.397Z" fill="white"/>
<path d="M44.0924 976C42.8059 976 41.841 975.027 41.841 973.731C41.841 972.435 42.8059 971.463 44.0924 971.463C45.3789 971.463 46.3437 972.435 46.3437 973.731C46.3437 974.919 45.3789 976 44.0924 976Z" fill="white"/>
<path d="M28.1182 821.537C26.8317 821.537 25.8669 820.565 25.8669 819.268C25.8669 817.972 26.8317 817 28.1182 817C29.4047 817 30.3696 817.972 30.3696 819.268C30.3696 820.565 29.4047 821.537 28.1182 821.537Z" fill="white"/>
<path d="M28.1182 840.871C26.8317 840.871 25.8669 839.899 25.8669 838.602C25.8669 837.306 26.8317 836.334 28.1182 836.334C29.4047 836.334 30.3696 837.306 30.3696 838.602C30.3696 839.791 29.4047 840.871 28.1182 840.871Z" fill="white"/>
<path d="M28.1182 860.099C26.8317 860.099 25.8669 859.127 25.8669 857.831C25.8669 856.535 26.8317 855.562 28.1182 855.562C29.4047 855.562 30.3696 856.535 30.3696 857.831C30.3696 859.127 29.4047 860.099 28.1182 860.099Z" fill="white"/>
<path d="M28.1182 879.433C26.8317 879.433 25.8669 878.461 25.8669 877.165C25.8669 875.869 26.8317 874.896 28.1182 874.896C29.4047 874.896 30.3696 875.869 30.3696 877.165C30.3696 878.461 29.4047 879.433 28.1182 879.433Z" fill="white"/>
<path d="M28.1182 898.769C26.8317 898.769 25.8669 897.797 25.8669 896.501C25.8669 895.205 26.8317 894.232 28.1182 894.232C29.4047 894.232 30.3696 895.205 30.3696 896.501C30.3696 897.689 29.4047 898.769 28.1182 898.769Z" fill="white"/>
<path d="M28.1182 918.103C26.8317 918.103 25.8669 917.131 25.8669 915.835C25.8669 914.539 26.8317 913.566 28.1182 913.566C29.4047 913.566 30.3696 914.539 30.3696 915.835C30.3696 917.131 29.4047 918.103 28.1182 918.103Z" fill="white"/>
<path d="M28.1182 937.33C26.8317 937.33 25.8669 936.358 25.8669 935.061C25.8669 933.765 26.8317 932.793 28.1182 932.793C29.4047 932.793 30.3696 933.765 30.3696 935.061C30.3696 936.358 29.4047 937.33 28.1182 937.33Z" fill="white"/>
<path d="M28.1182 956.666C26.8317 956.666 25.8669 955.693 25.8669 954.397C25.8669 953.101 26.8317 952.129 28.1182 952.129C29.4047 952.129 30.3696 953.101 30.3696 954.397C30.3696 955.693 29.4047 956.666 28.1182 956.666Z" fill="white"/>
<path d="M28.1182 976C26.8317 976 25.8669 975.027 25.8669 973.731C25.8669 972.435 26.8317 971.463 28.1182 971.463C29.4047 971.463 30.3696 972.435 30.3696 973.731C30.3696 974.919 29.4047 976 28.1182 976Z" fill="white"/>
<path d="M12.2515 821.537C10.965 821.537 10.0002 820.565 10.0002 819.268C10.0002 817.972 10.965 817 12.2515 817C13.538 817 14.5029 817.972 14.5029 819.268C14.5029 820.565 13.4308 821.537 12.2515 821.537Z" fill="white"/>
<path d="M12.2515 840.871C10.965 840.871 10.0002 839.899 10.0002 838.602C10.0002 837.306 10.965 836.334 12.2515 836.334C13.538 836.334 14.5029 837.306 14.5029 838.602C14.5029 839.791 13.4308 840.871 12.2515 840.871Z" fill="white"/>
<path d="M12.2515 860.099C10.965 860.099 10.0002 859.127 10.0002 857.831C10.0002 856.535 10.965 855.562 12.2515 855.562C13.538 855.562 14.5029 856.535 14.5029 857.831C14.5029 859.127 13.4308 860.099 12.2515 860.099Z" fill="white"/>
<path d="M12.2515 879.433C10.965 879.433 10.0002 878.461 10.0002 877.165C10.0002 875.869 10.965 874.896 12.2515 874.896C13.538 874.896 14.5029 875.869 14.5029 877.165C14.5029 878.461 13.4308 879.433 12.2515 879.433Z" fill="white"/>
<path d="M12.2515 898.769C10.965 898.769 10.0001 897.797 10.0001 896.501C10.0001 895.205 10.965 894.232 12.2515 894.232C13.538 894.232 14.5029 895.205 14.5029 896.501C14.5029 897.689 13.4308 898.769 12.2515 898.769Z" fill="white"/>
<path d="M12.2515 918.103C10.965 918.103 10.0001 917.131 10.0001 915.835C10.0001 914.539 10.965 913.566 12.2515 913.566C13.538 913.566 14.5029 914.539 14.5029 915.835C14.5029 917.131 13.4308 918.103 12.2515 918.103Z" fill="white"/>
<path d="M12.2515 937.33C10.965 937.33 10.0001 936.358 10.0001 935.061C10.0001 933.765 10.965 932.793 12.2515 932.793C13.538 932.793 14.5029 933.765 14.5029 935.061C14.5029 936.358 13.4308 937.33 12.2515 937.33Z" fill="white"/>
<path d="M12.2515 956.666C10.965 956.666 10.0001 955.693 10.0001 954.397C10.0001 953.101 10.965 952.129 12.2515 952.129C13.538 952.129 14.5029 953.101 14.5029 954.397C14.5029 955.693 13.4308 956.666 12.2515 956.666Z" fill="white"/>
<path d="M12.2515 976C10.965 976 10.0001 975.027 10.0001 973.731C10.0001 972.435 10.965 971.463 12.2515 971.463C13.538 971.463 14.5029 972.435 14.5029 973.731C14.5029 974.919 13.4308 976 12.2515 976Z" fill="white"/>
</g>
<g opacity="0.2" clip-path="url(#clip1_2495_2544)">
<path d="M1838.1 0C1759.54 0 1696 63.5443 1696 142.097C1696 220.456 1759.54 284.195 1838.1 284.195C1916.46 284.195 1980.19 220.651 1980.19 142.097C1980 63.5443 1916.46 0 1838.1 0ZM1838.1 275.034C1764.61 275.034 1705.16 215.583 1705.16 142.097C1705.16 68.6122 1764.61 9.16129 1838.1 9.16129C1911.58 9.16129 1971.03 68.6122 1971.03 142.097C1971.03 215.388 1911.39 275.034 1838.1 275.034Z" fill="white"/>
<path d="M1838.1 30.6035C1776.7 30.6035 1726.8 80.5033 1726.8 141.903C1726.8 203.304 1776.7 253.203 1838.1 253.203C1899.5 253.203 1949.4 203.499 1949.4 142.098C1949.4 80.5033 1899.5 30.6035 1838.1 30.6035ZM1838.1 236.245C1786.05 236.245 1743.76 193.947 1743.76 141.903C1743.76 89.8595 1786.05 47.5616 1838.1 47.5616C1890.14 47.5616 1932.44 89.8595 1932.44 141.903C1932.44 193.947 1890.14 236.245 1838.1 236.245Z" fill="white"/>
<path d="M1838.1 79.5273C1803.6 79.5273 1775.53 107.596 1775.53 142.097C1775.53 176.598 1803.4 204.667 1838.1 204.667C1872.6 204.667 1900.67 176.598 1900.67 142.097C1900.47 107.596 1872.6 79.5273 1838.1 79.5273ZM1838.1 175.623C1819.58 175.623 1804.57 160.614 1804.57 142.097C1804.57 123.579 1819.58 108.571 1838.1 108.571C1856.62 108.571 1871.62 123.579 1871.62 142.097C1871.62 160.614 1856.62 175.623 1838.1 175.623Z" fill="white"/>
</g>
<defs>
<linearGradient id="paint0_linear_2495_2544" x1="-7.15256e-05" y1="983" x2="966.121" y2="-491.851" gradientUnits="userSpaceOnUse">
<stop stop-color="#FF3F3A"/>
<stop offset="1" stop-color="#F75E05"/>
</linearGradient>
<clipPath id="clip0_2495_2544">
<rect width="159" height="116" fill="white" transform="translate(126 817) rotate(90)"/>
</clipPath>
<clipPath id="clip1_2495_2544">
<rect width="284" height="284" fill="white" transform="translate(1696)"/>
</clipPath>
</defs>
</svg>
