<svg width="1920" height="1570" viewBox="0 0 1920 1570" fill="none" xmlns="http://www.w3.org/2000/svg">
<g clip-path="url(#clip0_2492_15119)">
<rect width="1920" height="1570" fill="#F4F5F7"/>
<g opacity="0.4" clip-path="url(#clip1_2492_15119)">
<path d="M1917.09 1407C1845.73 1407 1788 1464.73 1788 1536.09C1788 1607.27 1845.73 1665.18 1917.09 1665.18C1988.27 1665.18 2046.18 1607.45 2046.18 1536.09C2046 1464.73 1988.27 1407 1917.09 1407ZM1917.09 1656.85C1850.33 1656.85 1796.32 1602.85 1796.32 1536.09C1796.32 1469.33 1850.33 1415.32 1917.09 1415.32C1983.85 1415.32 2037.85 1469.33 2037.85 1536.09C2037.85 1602.67 1983.67 1656.85 1917.09 1656.85Z" fill="white"/>
<path d="M1917.09 1434.8C1861.31 1434.8 1815.98 1480.13 1815.98 1535.91C1815.98 1591.69 1861.31 1637.02 1917.09 1637.02C1972.87 1637.02 2018.2 1591.87 2018.2 1536.09C2018.2 1480.13 1972.87 1434.8 1917.09 1434.8ZM1917.09 1621.62C1869.81 1621.62 1831.38 1583.19 1831.38 1535.91C1831.38 1488.63 1869.81 1450.21 1917.09 1450.21C1964.37 1450.21 2002.79 1488.63 2002.79 1535.91C2002.79 1583.19 1964.37 1621.62 1917.09 1621.62Z" fill="white"/>
</g>
<g clip-path="url(#clip2_2492_15119)">
<path d="M347.08 1397.86C347.08 1399.02 346.206 1399.9 345.04 1399.9C343.874 1399.9 343 1399.02 343 1397.86C343 1396.7 343.874 1395.82 345.04 1395.82C346.206 1395.82 347.08 1396.79 347.08 1397.86Z" fill="white"/>
<path d="M364.469 1397.86C364.469 1399.02 363.595 1399.9 362.429 1399.9C361.263 1399.9 360.389 1399.02 360.389 1397.86C360.389 1396.7 361.263 1395.82 362.429 1395.82C363.498 1395.82 364.469 1396.79 364.469 1397.86Z" fill="white"/>
<path d="M381.762 1397.86C381.762 1399.02 380.887 1399.9 379.722 1399.9C378.556 1399.9 377.682 1399.02 377.682 1397.86C377.682 1396.7 378.556 1395.82 379.722 1395.82C380.887 1395.82 381.762 1396.79 381.762 1397.86Z" fill="white"/>
<path d="M399.151 1397.86C399.151 1399.02 398.277 1399.9 397.111 1399.9C395.945 1399.9 395.071 1399.02 395.071 1397.86C395.071 1396.7 395.945 1395.82 397.111 1395.82C398.277 1395.82 399.151 1396.79 399.151 1397.86Z" fill="white"/>
<path d="M416.54 1397.86C416.54 1399.02 415.666 1399.9 414.5 1399.9C413.334 1399.9 412.46 1399.02 412.46 1397.86C412.46 1396.7 413.334 1395.82 414.5 1395.82C415.569 1395.82 416.54 1396.79 416.54 1397.86Z" fill="white"/>
<path d="M433.929 1397.86C433.929 1399.02 433.055 1399.9 431.889 1399.9C430.723 1399.9 429.849 1399.02 429.849 1397.86C429.849 1396.7 430.723 1395.82 431.889 1395.82C433.055 1395.82 433.929 1396.79 433.929 1397.86Z" fill="white"/>
<path d="M451.222 1397.86C451.222 1399.02 450.347 1399.9 449.182 1399.9C448.016 1399.9 447.142 1399.02 447.142 1397.86C447.142 1396.7 448.016 1395.82 449.182 1395.82C450.347 1395.82 451.222 1396.79 451.222 1397.86Z" fill="white"/>
<path d="M468.611 1397.86C468.611 1399.02 467.737 1399.9 466.571 1399.9C465.405 1399.9 464.531 1399.02 464.531 1397.86C464.531 1396.7 465.405 1395.82 466.571 1395.82C467.737 1395.82 468.611 1396.79 468.611 1397.86Z" fill="white"/>
<path d="M486 1397.86C486 1399.02 485.126 1399.9 483.96 1399.9C482.794 1399.9 481.92 1399.02 481.92 1397.86C481.92 1396.7 482.794 1395.82 483.96 1395.82C485.029 1395.82 486 1396.79 486 1397.86Z" fill="white"/>
<path d="M347.08 1412.32C347.08 1413.48 346.206 1414.36 345.04 1414.36C343.874 1414.36 343 1413.48 343 1412.32C343 1411.15 343.874 1410.28 345.04 1410.28C346.206 1410.28 347.08 1411.15 347.08 1412.32Z" fill="white"/>
<path d="M364.469 1412.32C364.469 1413.48 363.595 1414.36 362.429 1414.36C361.263 1414.36 360.389 1413.48 360.389 1412.32C360.389 1411.15 361.263 1410.28 362.429 1410.28C363.498 1410.28 364.469 1411.15 364.469 1412.32Z" fill="white"/>
<path d="M381.762 1412.32C381.762 1413.48 380.887 1414.36 379.722 1414.36C378.556 1414.36 377.682 1413.48 377.682 1412.32C377.682 1411.15 378.556 1410.28 379.722 1410.28C380.887 1410.28 381.762 1411.15 381.762 1412.32Z" fill="white"/>
<path d="M399.151 1412.32C399.151 1413.48 398.277 1414.36 397.111 1414.36C395.945 1414.36 395.071 1413.48 395.071 1412.32C395.071 1411.15 395.945 1410.28 397.111 1410.28C398.277 1410.28 399.151 1411.15 399.151 1412.32Z" fill="white"/>
<path d="M416.54 1412.32C416.54 1413.48 415.666 1414.36 414.5 1414.36C413.334 1414.36 412.46 1413.48 412.46 1412.32C412.46 1411.15 413.334 1410.28 414.5 1410.28C415.569 1410.28 416.54 1411.15 416.54 1412.32Z" fill="white"/>
<path d="M433.929 1412.32C433.929 1413.48 433.055 1414.36 431.889 1414.36C430.723 1414.36 429.849 1413.48 429.849 1412.32C429.849 1411.15 430.723 1410.28 431.889 1410.28C433.055 1410.28 433.929 1411.15 433.929 1412.32Z" fill="white"/>
<path d="M451.222 1412.32C451.222 1413.48 450.347 1414.36 449.182 1414.36C448.016 1414.36 447.142 1413.48 447.142 1412.32C447.142 1411.15 448.016 1410.28 449.182 1410.28C450.347 1410.28 451.222 1411.15 451.222 1412.32Z" fill="white"/>
<path d="M468.611 1412.32C468.611 1413.48 467.737 1414.36 466.571 1414.36C465.405 1414.36 464.531 1413.48 464.531 1412.32C464.531 1411.15 465.405 1410.28 466.571 1410.28C467.737 1410.28 468.611 1411.15 468.611 1412.32Z" fill="white"/>
<path d="M486 1412.32C486 1413.48 485.126 1414.36 483.96 1414.36C482.794 1414.36 481.92 1413.48 481.92 1412.32C481.92 1411.15 482.794 1410.28 483.96 1410.28C485.029 1410.28 486 1411.15 486 1412.32Z" fill="white"/>
<path d="M347.08 1369.04C347.08 1370.2 346.206 1371.08 345.04 1371.08C343.874 1371.08 343 1370.2 343 1369.04C343 1367.87 343.874 1367 345.04 1367C346.206 1367 347.08 1367.87 347.08 1369.04Z" fill="white"/>
<path d="M364.469 1369.04C364.469 1370.2 363.595 1371.08 362.429 1371.08C361.263 1371.08 360.389 1370.2 360.389 1369.04C360.389 1367.87 361.263 1367 362.429 1367C363.498 1367 364.469 1367.87 364.469 1369.04Z" fill="white"/>
<path d="M381.762 1369.04C381.762 1370.2 380.887 1371.08 379.722 1371.08C378.556 1371.08 377.682 1370.2 377.682 1369.04C377.682 1367.87 378.653 1367 379.722 1367C380.887 1367 381.762 1367.87 381.762 1369.04Z" fill="white"/>
<path d="M399.151 1369.04C399.151 1370.2 398.277 1371.08 397.111 1371.08C395.945 1371.08 395.071 1370.2 395.071 1369.04C395.071 1367.87 396.042 1367 397.111 1367C398.179 1367 399.151 1367.87 399.151 1369.04Z" fill="white"/>
<path d="M416.54 1369.04C416.54 1370.2 415.666 1371.08 414.5 1371.08C413.334 1371.08 412.46 1370.2 412.46 1369.04C412.46 1367.87 413.334 1367 414.5 1367C415.569 1367 416.54 1367.87 416.54 1369.04Z" fill="white"/>
<path d="M433.929 1369.04C433.929 1370.2 433.055 1371.08 431.889 1371.08C430.723 1371.08 429.849 1370.2 429.849 1369.04C429.849 1367.87 430.723 1367 431.889 1367C433.055 1367 433.929 1367.87 433.929 1369.04Z" fill="white"/>
<path d="M451.222 1369.04C451.222 1370.2 450.347 1371.08 449.182 1371.08C448.016 1371.08 447.142 1370.2 447.142 1369.04C447.142 1367.87 448.016 1367 449.182 1367C450.347 1367 451.222 1367.87 451.222 1369.04Z" fill="white"/>
<path d="M468.611 1369.04C468.611 1370.2 467.737 1371.08 466.571 1371.08C465.405 1371.08 464.531 1370.2 464.531 1369.04C464.531 1367.87 465.405 1367 466.571 1367C467.737 1367 468.611 1367.87 468.611 1369.04Z" fill="white"/>
<path d="M486 1369.04C486 1370.2 485.126 1371.08 483.96 1371.08C482.794 1371.08 481.92 1370.2 481.92 1369.04C481.92 1367.87 482.794 1367 483.96 1367C485.029 1367 486 1367.87 486 1369.04Z" fill="white"/>
<path d="M347.08 1383.5C347.08 1384.66 346.206 1385.53 345.04 1385.53C343.874 1385.53 343 1384.56 343 1383.5C343 1382.33 343.874 1381.46 345.04 1381.46C346.206 1381.46 347.08 1382.33 347.08 1383.5Z" fill="white"/>
<path d="M364.469 1383.5C364.469 1384.66 363.595 1385.53 362.429 1385.53C361.263 1385.53 360.389 1384.66 360.389 1383.5C360.389 1382.33 361.263 1381.46 362.429 1381.46C363.498 1381.46 364.469 1382.33 364.469 1383.5Z" fill="white"/>
<path d="M381.762 1383.5C381.762 1384.66 380.887 1385.53 379.722 1385.53C378.556 1385.53 377.682 1384.66 377.682 1383.5C377.682 1382.33 378.556 1381.46 379.722 1381.46C380.887 1381.46 381.762 1382.33 381.762 1383.5Z" fill="white"/>
<path d="M399.151 1383.5C399.151 1384.66 398.277 1385.53 397.111 1385.53C395.945 1385.53 395.071 1384.66 395.071 1383.5C395.071 1382.33 395.945 1381.46 397.111 1381.46C398.277 1381.46 399.151 1382.33 399.151 1383.5Z" fill="white"/>
<path d="M416.54 1383.5C416.54 1384.66 415.666 1385.53 414.5 1385.53C413.334 1385.53 412.46 1384.66 412.46 1383.5C412.46 1382.33 413.334 1381.46 414.5 1381.46C415.569 1381.46 416.54 1382.33 416.54 1383.5Z" fill="white"/>
<path d="M433.929 1383.5C433.929 1384.66 433.055 1385.53 431.889 1385.53C430.723 1385.53 429.849 1384.66 429.849 1383.5C429.849 1382.33 430.723 1381.46 431.889 1381.46C433.055 1381.46 433.929 1382.33 433.929 1383.5Z" fill="white"/>
<path d="M451.222 1383.5C451.222 1384.66 450.347 1385.53 449.182 1385.53C448.016 1385.53 447.142 1384.66 447.142 1383.5C447.142 1382.33 448.016 1381.46 449.182 1381.46C450.347 1381.46 451.222 1382.33 451.222 1383.5Z" fill="white"/>
<path d="M468.611 1383.5C468.611 1384.66 467.737 1385.53 466.571 1385.53C465.405 1385.53 464.531 1384.66 464.531 1383.5C464.531 1382.33 465.405 1381.46 466.571 1381.46C467.737 1381.46 468.611 1382.33 468.611 1383.5Z" fill="white"/>
<path d="M486 1383.5C486 1384.66 485.126 1385.53 483.96 1385.53C482.794 1385.53 481.92 1384.66 481.92 1383.5C481.92 1382.33 482.794 1381.46 483.96 1381.46C485.029 1381.46 486 1382.33 486 1383.5Z" fill="white"/>
<path d="M347.08 1426.68C347.08 1427.84 346.206 1428.72 345.04 1428.72C343.874 1428.72 343 1427.84 343 1426.68C343 1425.52 343.874 1424.64 345.04 1424.64C346.206 1424.64 347.08 1425.61 347.08 1426.68Z" fill="white"/>
<path d="M364.469 1426.68C364.469 1427.84 363.595 1428.72 362.429 1428.72C361.263 1428.72 360.389 1427.84 360.389 1426.68C360.389 1425.52 361.263 1424.64 362.429 1424.64C363.498 1424.64 364.469 1425.61 364.469 1426.68Z" fill="white"/>
<path d="M381.762 1426.68C381.762 1427.84 380.887 1428.72 379.722 1428.72C378.556 1428.72 377.682 1427.84 377.682 1426.68C377.682 1425.52 378.556 1424.64 379.722 1424.64C380.887 1424.64 381.762 1425.61 381.762 1426.68Z" fill="white"/>
<path d="M399.151 1426.68C399.151 1427.84 398.277 1428.72 397.111 1428.72C395.945 1428.72 395.071 1427.84 395.071 1426.68C395.071 1425.52 395.945 1424.64 397.111 1424.64C398.277 1424.64 399.151 1425.61 399.151 1426.68Z" fill="white"/>
<path d="M416.54 1426.68C416.54 1427.84 415.666 1428.72 414.5 1428.72C413.334 1428.72 412.46 1427.84 412.46 1426.68C412.46 1425.52 413.334 1424.64 414.5 1424.64C415.569 1424.64 416.54 1425.61 416.54 1426.68Z" fill="white"/>
<path d="M433.929 1426.68C433.929 1427.84 433.055 1428.72 431.889 1428.72C430.723 1428.72 429.849 1427.84 429.849 1426.68C429.849 1425.52 430.723 1424.64 431.889 1424.64C433.055 1424.64 433.929 1425.61 433.929 1426.68Z" fill="white"/>
<path d="M451.222 1426.68C451.222 1427.84 450.347 1428.72 449.182 1428.72C448.016 1428.72 447.142 1427.84 447.142 1426.68C447.142 1425.52 448.016 1424.64 449.182 1424.64C450.347 1424.64 451.222 1425.61 451.222 1426.68Z" fill="white"/>
<path d="M468.611 1426.68C468.611 1427.84 467.737 1428.72 466.571 1428.72C465.405 1428.72 464.531 1427.84 464.531 1426.68C464.531 1425.52 465.405 1424.64 466.571 1424.64C467.737 1424.64 468.611 1425.61 468.611 1426.68Z" fill="white"/>
<path d="M486 1426.68C486 1427.84 485.126 1428.72 483.96 1428.72C482.794 1428.72 481.92 1427.84 481.92 1426.68C481.92 1425.52 482.794 1424.64 483.96 1424.64C485.029 1424.64 486 1425.61 486 1426.68Z" fill="white"/>
<path d="M347.08 1441.14C347.08 1442.3 346.206 1443.18 345.04 1443.18C343.874 1443.18 343 1442.3 343 1441.14C343 1439.97 343.874 1439.1 345.04 1439.1C346.206 1439.1 347.08 1439.97 347.08 1441.14Z" fill="white"/>
<path d="M364.469 1441.14C364.469 1442.3 363.595 1443.18 362.429 1443.18C361.263 1443.18 360.389 1442.3 360.389 1441.14C360.389 1439.97 361.263 1439.1 362.429 1439.1C363.498 1439.1 364.469 1439.97 364.469 1441.14Z" fill="white"/>
<path d="M381.762 1441.14C381.762 1442.3 380.887 1443.18 379.722 1443.18C378.556 1443.18 377.682 1442.3 377.682 1441.14C377.682 1439.97 378.556 1439.1 379.722 1439.1C380.887 1439.1 381.762 1439.97 381.762 1441.14Z" fill="white"/>
<path d="M397.111 1443.18C398.238 1443.18 399.151 1442.26 399.151 1441.14C399.151 1440.01 398.238 1439.1 397.111 1439.1C395.984 1439.1 395.071 1440.01 395.071 1441.14C395.071 1442.26 395.984 1443.18 397.111 1443.18Z" fill="white"/>
<path d="M416.54 1441.14C416.54 1442.3 415.666 1443.18 414.5 1443.18C413.334 1443.18 412.46 1442.3 412.46 1441.14C412.46 1439.97 413.334 1439.1 414.5 1439.1C415.569 1439.1 416.54 1439.97 416.54 1441.14Z" fill="white"/>
<path d="M433.929 1441.14C433.929 1442.3 433.055 1443.18 431.889 1443.18C430.723 1443.18 429.849 1442.3 429.849 1441.14C429.849 1439.97 430.723 1439.1 431.889 1439.1C433.055 1439.1 433.929 1439.97 433.929 1441.14Z" fill="white"/>
<path d="M451.222 1441.14C451.222 1442.3 450.347 1443.18 449.182 1443.18C448.016 1443.18 447.142 1442.3 447.142 1441.14C447.142 1439.97 448.016 1439.1 449.182 1439.1C450.347 1439.1 451.222 1439.97 451.222 1441.14Z" fill="white"/>
<path d="M466.571 1443.18C467.698 1443.18 468.611 1442.26 468.611 1441.14C468.611 1440.01 467.698 1439.1 466.571 1439.1C465.444 1439.1 464.531 1440.01 464.531 1441.14C464.531 1442.26 465.444 1443.18 466.571 1443.18Z" fill="white"/>
<path d="M486 1441.14C486 1442.3 485.126 1443.18 483.96 1443.18C482.794 1443.18 481.92 1442.3 481.92 1441.14C481.92 1439.97 482.794 1439.1 483.96 1439.1C485.029 1439.1 486 1439.97 486 1441.14Z" fill="white"/>
<path d="M347.08 1455.6C347.08 1456.76 346.206 1457.64 345.04 1457.64C343.874 1457.64 343 1456.76 343 1455.6C343 1454.44 343.874 1453.56 345.04 1453.56C346.206 1453.56 347.08 1454.44 347.08 1455.6Z" fill="white"/>
<path d="M364.469 1455.6C364.469 1456.76 363.595 1457.64 362.429 1457.64C361.263 1457.64 360.389 1456.76 360.389 1455.6C360.389 1454.44 361.263 1453.56 362.429 1453.56C363.498 1453.56 364.469 1454.44 364.469 1455.6Z" fill="white"/>
<path d="M381.762 1455.6C381.762 1456.76 380.887 1457.64 379.722 1457.64C378.556 1457.64 377.682 1456.76 377.682 1455.6C377.682 1454.44 378.556 1453.56 379.722 1453.56C380.887 1453.56 381.762 1454.44 381.762 1455.6Z" fill="white"/>
<path d="M399.151 1455.6C399.151 1456.76 398.277 1457.64 397.111 1457.64C395.945 1457.64 395.071 1456.76 395.071 1455.6C395.071 1454.44 395.945 1453.56 397.111 1453.56C398.277 1453.56 399.151 1454.44 399.151 1455.6Z" fill="white"/>
<path d="M416.54 1455.6C416.54 1456.76 415.666 1457.64 414.5 1457.64C413.334 1457.64 412.46 1456.76 412.46 1455.6C412.46 1454.44 413.334 1453.56 414.5 1453.56C415.569 1453.56 416.54 1454.44 416.54 1455.6Z" fill="white"/>
<path d="M433.929 1455.6C433.929 1456.76 433.055 1457.64 431.889 1457.64C430.723 1457.64 429.849 1456.76 429.849 1455.6C429.849 1454.44 430.723 1453.56 431.889 1453.56C433.055 1453.56 433.929 1454.44 433.929 1455.6Z" fill="white"/>
<path d="M451.222 1455.6C451.222 1456.76 450.347 1457.64 449.182 1457.64C448.016 1457.64 447.142 1456.76 447.142 1455.6C447.142 1454.44 448.016 1453.56 449.182 1453.56C450.347 1453.56 451.222 1454.44 451.222 1455.6Z" fill="white"/>
<path d="M468.611 1455.6C468.611 1456.76 467.737 1457.64 466.571 1457.64C465.405 1457.64 464.531 1456.76 464.531 1455.6C464.531 1454.44 465.405 1453.56 466.571 1453.56C467.737 1453.56 468.611 1454.44 468.611 1455.6Z" fill="white"/>
<path d="M486 1455.6C486 1456.76 485.126 1457.64 483.96 1457.64C482.794 1457.64 481.92 1456.76 481.92 1455.6C481.92 1454.44 482.794 1453.56 483.96 1453.56C485.029 1453.56 486 1454.44 486 1455.6Z" fill="white"/>
<path d="M347.08 1469.96C347.08 1471.13 346.206 1472 345.04 1472C343.874 1472 343 1471.13 343 1469.96C343 1468.8 343.874 1467.92 345.04 1467.92C346.206 1467.92 347.08 1468.89 347.08 1469.96Z" fill="white"/>
<path d="M364.469 1469.96C364.469 1471.13 363.595 1472 362.429 1472C361.263 1472 360.389 1471.13 360.389 1469.96C360.389 1468.8 361.263 1467.92 362.429 1467.92C363.498 1467.92 364.469 1468.89 364.469 1469.96Z" fill="white"/>
<path d="M381.762 1469.96C381.762 1471.13 380.887 1472 379.722 1472C378.556 1472 377.682 1471.13 377.682 1469.96C377.682 1468.8 378.556 1467.92 379.722 1467.92C380.887 1467.92 381.762 1468.89 381.762 1469.96Z" fill="white"/>
<path d="M399.151 1469.96C399.151 1471.13 398.277 1472 397.111 1472C395.945 1472 395.071 1471.13 395.071 1469.96C395.071 1468.8 395.945 1467.92 397.111 1467.92C398.277 1467.92 399.151 1468.89 399.151 1469.96Z" fill="white"/>
<path d="M416.54 1469.96C416.54 1471.13 415.666 1472 414.5 1472C413.334 1472 412.46 1471.13 412.46 1469.96C412.46 1468.8 413.334 1467.92 414.5 1467.92C415.569 1467.92 416.54 1468.89 416.54 1469.96Z" fill="white"/>
<path d="M433.929 1469.96C433.929 1471.13 433.055 1472 431.889 1472C430.723 1472 429.849 1471.13 429.849 1469.96C429.849 1468.8 430.723 1467.92 431.889 1467.92C433.055 1467.92 433.929 1468.89 433.929 1469.96Z" fill="white"/>
<path d="M451.222 1469.96C451.222 1471.13 450.347 1472 449.182 1472C448.016 1472 447.142 1471.13 447.142 1469.96C447.142 1468.8 448.016 1467.92 449.182 1467.92C450.347 1467.92 451.222 1468.89 451.222 1469.96Z" fill="white"/>
<path d="M468.611 1469.96C468.611 1471.13 467.737 1472 466.571 1472C465.405 1472 464.531 1471.13 464.531 1469.96C464.531 1468.8 465.405 1467.92 466.571 1467.92C467.737 1467.92 468.611 1468.89 468.611 1469.96Z" fill="white"/>
<path d="M486 1469.96C486 1471.13 485.126 1472 483.96 1472C482.794 1472 481.92 1471.13 481.92 1469.96C481.92 1468.8 482.794 1467.92 483.96 1467.92C485.029 1467.92 486 1468.89 486 1469.96Z" fill="white"/>
</g>
<g opacity="0.6">
<path d="M1248.73 990.89C1259.33 990.89 1267.96 982.165 1267.96 971.453C1267.96 960.742 1259.33 952.017 1248.73 952.017L1248.73 990.89Z" fill="white"/>
<path d="M1218.73 990.89C1229.33 990.89 1237.96 982.165 1237.96 971.453C1237.96 960.742 1229.33 952.017 1218.73 952.017L1218.73 990.89Z" fill="white"/>
<path d="M1188.73 990.89C1199.33 990.89 1207.96 982.165 1207.96 971.453C1207.96 960.742 1199.33 952.017 1188.73 952.017L1188.73 990.89Z" fill="white"/>
</g>
<g opacity="0.6" clip-path="url(#clip3_2492_15119)">
<path d="M147.55 849C107.443 849 75 881.443 75 921.55C75 961.557 107.443 994.1 147.55 994.1C187.557 994.1 220.1 961.656 220.1 921.55C220 881.443 187.557 849 147.55 849ZM147.55 989.422C110.031 989.422 79.6774 959.069 79.6774 921.55C79.6774 884.031 110.031 853.677 147.55 853.677C185.069 853.677 215.422 884.031 215.422 921.55C215.422 958.969 184.969 989.422 147.55 989.422Z" fill="white"/>
<path d="M147.55 864.625C116.201 864.625 90.7241 890.102 90.7241 921.451C90.7241 952.799 116.201 978.276 147.55 978.276C178.898 978.276 204.375 952.899 204.375 921.55C204.375 890.102 178.898 864.625 147.55 864.625ZM147.55 969.618C120.978 969.618 99.3823 948.022 99.3823 921.451C99.3823 894.879 120.978 873.283 147.55 873.283C174.122 873.283 195.717 894.879 195.717 921.451C195.717 948.022 174.122 969.618 147.55 969.618Z" fill="white"/>
<path d="M147.55 889.604C129.935 889.604 115.604 903.934 115.604 921.549C115.604 939.164 129.836 953.495 147.55 953.495C165.165 953.495 179.496 939.164 179.496 921.549C179.397 903.934 165.165 889.604 147.55 889.604ZM147.55 938.667C138.096 938.667 130.433 931.004 130.433 921.549C130.433 912.095 138.096 904.432 147.55 904.432C157.005 904.432 164.668 912.095 164.668 921.549C164.668 931.004 157.005 938.667 147.55 938.667Z" fill="white"/>
</g>
<g opacity="0.6">
<path d="M1906.3 547.921L1906.3 536L1938 536L1938 567.699L1926.17 567.699L1926.17 547.921L1906.3 547.921Z" fill="white"/>
<path d="M1884.9 569.326L1884.9 557.495L1916.6 557.495L1916.6 589.104L1904.68 589.104L1904.68 569.326L1884.9 569.326Z" fill="white"/>
<path d="M1863.49 590.818L1863.49 578.897L1895.1 578.897L1895.1 610.596L1883.27 610.596L1883.27 590.818L1863.49 590.818Z" fill="white"/>
<path d="M1842 612.222L1842 600.301L1873.7 600.301L1873.7 632L1861.78 632L1861.78 612.222L1842 612.222Z" fill="white"/>
</g>
<g clip-path="url(#clip4_2492_15119)">
<path d="M1256.08 65.8602C1256.08 67.0247 1255.21 67.8981 1254.04 67.8981C1252.87 67.8981 1252 67.0247 1252 65.8602C1252 64.6956 1252.87 63.8223 1254.04 63.8223C1255.21 63.8223 1256.08 64.7927 1256.08 65.8602Z" fill="white"/>
<path d="M1273.47 65.8602C1273.47 67.0247 1272.6 67.8981 1271.43 67.8981C1270.26 67.8981 1269.39 67.0247 1269.39 65.8602C1269.39 64.6956 1270.26 63.8223 1271.43 63.8223C1272.5 63.8223 1273.47 64.7927 1273.47 65.8602Z" fill="white"/>
<path d="M1290.76 65.8602C1290.76 67.0247 1289.89 67.8981 1288.72 67.8981C1287.56 67.8981 1286.68 67.0247 1286.68 65.8602C1286.68 64.6956 1287.56 63.8223 1288.72 63.8223C1289.89 63.8223 1290.76 64.7927 1290.76 65.8602Z" fill="white"/>
<path d="M1308.15 65.8602C1308.15 67.0247 1307.28 67.8981 1306.11 67.8981C1304.95 67.8981 1304.07 67.0247 1304.07 65.8602C1304.07 64.6956 1304.95 63.8223 1306.11 63.8223C1307.28 63.8223 1308.15 64.7927 1308.15 65.8602Z" fill="white"/>
<path d="M1325.54 65.8602C1325.54 67.0247 1324.67 67.8981 1323.5 67.8981C1322.33 67.8981 1321.46 67.0247 1321.46 65.8602C1321.46 64.6956 1322.33 63.8223 1323.5 63.8223C1324.57 63.8223 1325.54 64.7927 1325.54 65.8602Z" fill="white"/>
<path d="M1342.93 65.8602C1342.93 67.0247 1342.05 67.8981 1340.89 67.8981C1339.72 67.8981 1338.85 67.0247 1338.85 65.8602C1338.85 64.6956 1339.72 63.8223 1340.89 63.8223C1342.05 63.8223 1342.93 64.7927 1342.93 65.8602Z" fill="white"/>
<path d="M1360.22 65.8602C1360.22 67.0247 1359.35 67.8981 1358.18 67.8981C1357.02 67.8981 1356.14 67.0247 1356.14 65.8602C1356.14 64.6956 1357.02 63.8223 1358.18 63.8223C1359.35 63.8223 1360.22 64.7927 1360.22 65.8602Z" fill="white"/>
<path d="M1377.61 65.8602C1377.61 67.0247 1376.74 67.8981 1375.57 67.8981C1374.41 67.8981 1373.53 67.0247 1373.53 65.8602C1373.53 64.6956 1374.41 63.8223 1375.57 63.8223C1376.74 63.8223 1377.61 64.7927 1377.61 65.8602Z" fill="white"/>
<path d="M1395 65.8602C1395 67.0247 1394.13 67.8981 1392.96 67.8981C1391.79 67.8981 1390.92 67.0247 1390.92 65.8602C1390.92 64.6956 1391.79 63.8223 1392.96 63.8223C1394.03 63.8223 1395 64.7927 1395 65.8602Z" fill="white"/>
<path d="M1256.08 80.3191C1256.08 81.4837 1255.21 82.357 1254.04 82.357C1252.87 82.357 1252 81.4837 1252 80.3191C1252 79.1546 1252.87 78.2812 1254.04 78.2812C1255.21 78.2812 1256.08 79.1546 1256.08 80.3191Z" fill="white"/>
<path d="M1273.47 80.3191C1273.47 81.4837 1272.6 82.357 1271.43 82.357C1270.26 82.357 1269.39 81.4837 1269.39 80.3191C1269.39 79.1546 1270.26 78.2812 1271.43 78.2812C1272.5 78.2812 1273.47 79.1546 1273.47 80.3191Z" fill="white"/>
<path d="M1290.76 80.3191C1290.76 81.4837 1289.89 82.357 1288.72 82.357C1287.56 82.357 1286.68 81.4837 1286.68 80.3191C1286.68 79.1546 1287.56 78.2812 1288.72 78.2812C1289.89 78.2812 1290.76 79.1546 1290.76 80.3191Z" fill="white"/>
<path d="M1308.15 80.3191C1308.15 81.4837 1307.28 82.357 1306.11 82.357C1304.95 82.357 1304.07 81.4837 1304.07 80.3191C1304.07 79.1546 1304.95 78.2812 1306.11 78.2812C1307.28 78.2812 1308.15 79.1546 1308.15 80.3191Z" fill="white"/>
<path d="M1325.54 80.3191C1325.54 81.4837 1324.67 82.357 1323.5 82.357C1322.33 82.357 1321.46 81.4837 1321.46 80.3191C1321.46 79.1546 1322.33 78.2812 1323.5 78.2812C1324.57 78.2812 1325.54 79.1546 1325.54 80.3191Z" fill="white"/>
<path d="M1342.93 80.3191C1342.93 81.4837 1342.05 82.357 1340.89 82.357C1339.72 82.357 1338.85 81.4837 1338.85 80.3191C1338.85 79.1546 1339.72 78.2812 1340.89 78.2812C1342.05 78.2812 1342.93 79.1546 1342.93 80.3191Z" fill="white"/>
<path d="M1360.22 80.3191C1360.22 81.4837 1359.35 82.357 1358.18 82.357C1357.02 82.357 1356.14 81.4837 1356.14 80.3191C1356.14 79.1546 1357.02 78.2812 1358.18 78.2812C1359.35 78.2812 1360.22 79.1546 1360.22 80.3191Z" fill="white"/>
<path d="M1377.61 80.3191C1377.61 81.4837 1376.74 82.357 1375.57 82.357C1374.41 82.357 1373.53 81.4837 1373.53 80.3191C1373.53 79.1546 1374.41 78.2812 1375.57 78.2812C1376.74 78.2812 1377.61 79.1546 1377.61 80.3191Z" fill="white"/>
<path d="M1395 80.3191C1395 81.4837 1394.13 82.357 1392.96 82.357C1391.79 82.357 1390.92 81.4837 1390.92 80.3191C1390.92 79.1546 1391.79 78.2812 1392.96 78.2812C1394.03 78.2812 1395 79.1546 1395 80.3191Z" fill="white"/>
<path d="M1256.08 37.0379C1256.08 38.2024 1255.21 39.0758 1254.04 39.0758C1252.87 39.0758 1252 38.2024 1252 37.0379C1252 35.8734 1252.87 35 1254.04 35C1255.21 35 1256.08 35.8734 1256.08 37.0379Z" fill="white"/>
<path d="M1273.47 37.0379C1273.47 38.2024 1272.6 39.0758 1271.43 39.0758C1270.26 39.0758 1269.39 38.2024 1269.39 37.0379C1269.39 35.8734 1270.26 35 1271.43 35C1272.5 35 1273.47 35.8734 1273.47 37.0379Z" fill="white"/>
<path d="M1290.76 37.0379C1290.76 38.2024 1289.89 39.0758 1288.72 39.0758C1287.56 39.0758 1286.68 38.2024 1286.68 37.0379C1286.68 35.8734 1287.65 35 1288.72 35C1289.89 35 1290.76 35.8734 1290.76 37.0379Z" fill="white"/>
<path d="M1308.15 37.0379C1308.15 38.2024 1307.28 39.0758 1306.11 39.0758C1304.95 39.0758 1304.07 38.2024 1304.07 37.0379C1304.07 35.8734 1305.04 35 1306.11 35C1307.18 35 1308.15 35.8734 1308.15 37.0379Z" fill="white"/>
<path d="M1325.54 37.0379C1325.54 38.2024 1324.67 39.0758 1323.5 39.0758C1322.33 39.0758 1321.46 38.2024 1321.46 37.0379C1321.46 35.8734 1322.33 35 1323.5 35C1324.57 35 1325.54 35.8734 1325.54 37.0379Z" fill="white"/>
<path d="M1342.93 37.0379C1342.93 38.2024 1342.05 39.0758 1340.89 39.0758C1339.72 39.0758 1338.85 38.2024 1338.85 37.0379C1338.85 35.8734 1339.72 35 1340.89 35C1342.05 35 1342.93 35.8734 1342.93 37.0379Z" fill="white"/>
<path d="M1360.22 37.0379C1360.22 38.2024 1359.35 39.0758 1358.18 39.0758C1357.02 39.0758 1356.14 38.2024 1356.14 37.0379C1356.14 35.8734 1357.02 35 1358.18 35C1359.35 35 1360.22 35.8734 1360.22 37.0379Z" fill="white"/>
<path d="M1377.61 37.0379C1377.61 38.2024 1376.74 39.0758 1375.57 39.0758C1374.41 39.0758 1373.53 38.2024 1373.53 37.0379C1373.53 35.8734 1374.41 35 1375.57 35C1376.74 35 1377.61 35.8734 1377.61 37.0379Z" fill="white"/>
<path d="M1395 37.0379C1395 38.2024 1394.13 39.0758 1392.96 39.0758C1391.79 39.0758 1390.92 38.2024 1390.92 37.0379C1390.92 35.8734 1391.79 35 1392.96 35C1394.03 35 1395 35.8734 1395 37.0379Z" fill="white"/>
<path d="M1256.08 51.4969C1256.08 52.6614 1255.21 53.5348 1254.04 53.5348C1252.87 53.5348 1252 52.5643 1252 51.4969C1252 50.3324 1252.87 49.459 1254.04 49.459C1255.21 49.459 1256.08 50.3324 1256.08 51.4969Z" fill="white"/>
<path d="M1273.47 51.4969C1273.47 52.6614 1272.6 53.5348 1271.43 53.5348C1270.26 53.5348 1269.39 52.6614 1269.39 51.4969C1269.39 50.3324 1270.26 49.459 1271.43 49.459C1272.5 49.459 1273.47 50.3324 1273.47 51.4969Z" fill="white"/>
<path d="M1290.76 51.4969C1290.76 52.6614 1289.89 53.5348 1288.72 53.5348C1287.56 53.5348 1286.68 52.6614 1286.68 51.4969C1286.68 50.3324 1287.56 49.459 1288.72 49.459C1289.89 49.459 1290.76 50.3324 1290.76 51.4969Z" fill="white"/>
<path d="M1308.15 51.4969C1308.15 52.6614 1307.28 53.5348 1306.11 53.5348C1304.95 53.5348 1304.07 52.6614 1304.07 51.4969C1304.07 50.3324 1304.95 49.459 1306.11 49.459C1307.28 49.459 1308.15 50.3324 1308.15 51.4969Z" fill="white"/>
<path d="M1325.54 51.4969C1325.54 52.6614 1324.67 53.5348 1323.5 53.5348C1322.33 53.5348 1321.46 52.6614 1321.46 51.4969C1321.46 50.3324 1322.33 49.459 1323.5 49.459C1324.57 49.459 1325.54 50.3324 1325.54 51.4969Z" fill="white"/>
<path d="M1342.93 51.4969C1342.93 52.6614 1342.05 53.5348 1340.89 53.5348C1339.72 53.5348 1338.85 52.6614 1338.85 51.4969C1338.85 50.3324 1339.72 49.459 1340.89 49.459C1342.05 49.459 1342.93 50.3324 1342.93 51.4969Z" fill="white"/>
<path d="M1360.22 51.4969C1360.22 52.6614 1359.35 53.5348 1358.18 53.5348C1357.02 53.5348 1356.14 52.6614 1356.14 51.4969C1356.14 50.3324 1357.02 49.459 1358.18 49.459C1359.35 49.459 1360.22 50.3324 1360.22 51.4969Z" fill="white"/>
<path d="M1377.61 51.4969C1377.61 52.6614 1376.74 53.5348 1375.57 53.5348C1374.41 53.5348 1373.53 52.6614 1373.53 51.4969C1373.53 50.3324 1374.41 49.459 1375.57 49.459C1376.74 49.459 1377.61 50.3324 1377.61 51.4969Z" fill="white"/>
<path d="M1395 51.4969C1395 52.6614 1394.13 53.5348 1392.96 53.5348C1391.79 53.5348 1390.92 52.6614 1390.92 51.4969C1390.92 50.3324 1391.79 49.459 1392.96 49.459C1394.03 49.459 1395 50.3324 1395 51.4969Z" fill="white"/>
<path d="M1256.08 94.6805C1256.08 95.845 1255.21 96.7184 1254.04 96.7184C1252.87 96.7184 1252 95.845 1252 94.6805C1252 93.516 1252.87 92.6426 1254.04 92.6426C1255.21 92.6426 1256.08 93.613 1256.08 94.6805Z" fill="white"/>
<path d="M1273.47 94.6805C1273.47 95.845 1272.6 96.7184 1271.43 96.7184C1270.26 96.7184 1269.39 95.845 1269.39 94.6805C1269.39 93.516 1270.26 92.6426 1271.43 92.6426C1272.5 92.6426 1273.47 93.613 1273.47 94.6805Z" fill="white"/>
<path d="M1290.76 94.6805C1290.76 95.845 1289.89 96.7184 1288.72 96.7184C1287.56 96.7184 1286.68 95.845 1286.68 94.6805C1286.68 93.516 1287.56 92.6426 1288.72 92.6426C1289.89 92.6426 1290.76 93.613 1290.76 94.6805Z" fill="white"/>
<path d="M1308.15 94.6805C1308.15 95.845 1307.28 96.7184 1306.11 96.7184C1304.95 96.7184 1304.07 95.845 1304.07 94.6805C1304.07 93.516 1304.95 92.6426 1306.11 92.6426C1307.28 92.6426 1308.15 93.613 1308.15 94.6805Z" fill="white"/>
<path d="M1325.54 94.6805C1325.54 95.845 1324.67 96.7184 1323.5 96.7184C1322.33 96.7184 1321.46 95.845 1321.46 94.6805C1321.46 93.516 1322.33 92.6426 1323.5 92.6426C1324.57 92.6426 1325.54 93.613 1325.54 94.6805Z" fill="white"/>
<path d="M1342.93 94.6805C1342.93 95.845 1342.05 96.7184 1340.89 96.7184C1339.72 96.7184 1338.85 95.845 1338.85 94.6805C1338.85 93.516 1339.72 92.6426 1340.89 92.6426C1342.05 92.6426 1342.93 93.613 1342.93 94.6805Z" fill="white"/>
<path d="M1360.22 94.6805C1360.22 95.845 1359.35 96.7184 1358.18 96.7184C1357.02 96.7184 1356.14 95.845 1356.14 94.6805C1356.14 93.516 1357.02 92.6426 1358.18 92.6426C1359.35 92.6426 1360.22 93.613 1360.22 94.6805Z" fill="white"/>
<path d="M1377.61 94.6805C1377.61 95.845 1376.74 96.7184 1375.57 96.7184C1374.41 96.7184 1373.53 95.845 1373.53 94.6805C1373.53 93.516 1374.41 92.6426 1375.57 92.6426C1376.74 92.6426 1377.61 93.613 1377.61 94.6805Z" fill="white"/>
<path d="M1395 94.6805C1395 95.845 1394.13 96.7184 1392.96 96.7184C1391.79 96.7184 1390.92 95.845 1390.92 94.6805C1390.92 93.516 1391.79 92.6426 1392.96 92.6426C1394.03 92.6426 1395 93.613 1395 94.6805Z" fill="white"/>
<path d="M1256.08 109.139C1256.08 110.304 1255.21 111.177 1254.04 111.177C1252.87 111.177 1252 110.304 1252 109.139C1252 107.975 1252.87 107.102 1254.04 107.102C1255.21 107.102 1256.08 107.975 1256.08 109.139Z" fill="white"/>
<path d="M1273.47 109.139C1273.47 110.304 1272.6 111.177 1271.43 111.177C1270.26 111.177 1269.39 110.304 1269.39 109.139C1269.39 107.975 1270.26 107.102 1271.43 107.102C1272.5 107.102 1273.47 107.975 1273.47 109.139Z" fill="white"/>
<path d="M1290.76 109.139C1290.76 110.304 1289.89 111.177 1288.72 111.177C1287.56 111.177 1286.68 110.304 1286.68 109.139C1286.68 107.975 1287.56 107.102 1288.72 107.102C1289.89 107.102 1290.76 107.975 1290.76 109.139Z" fill="white"/>
<path d="M1306.11 111.177C1307.24 111.177 1308.15 110.265 1308.15 109.139C1308.15 108.014 1307.24 107.102 1306.11 107.102C1304.98 107.102 1304.07 108.014 1304.07 109.139C1304.07 110.265 1304.98 111.177 1306.11 111.177Z" fill="white"/>
<path d="M1325.54 109.139C1325.54 110.304 1324.67 111.177 1323.5 111.177C1322.33 111.177 1321.46 110.304 1321.46 109.139C1321.46 107.975 1322.33 107.102 1323.5 107.102C1324.57 107.102 1325.54 107.975 1325.54 109.139Z" fill="white"/>
<path d="M1342.93 109.139C1342.93 110.304 1342.05 111.177 1340.89 111.177C1339.72 111.177 1338.85 110.304 1338.85 109.139C1338.85 107.975 1339.72 107.102 1340.89 107.102C1342.05 107.102 1342.93 107.975 1342.93 109.139Z" fill="white"/>
<path d="M1360.22 109.139C1360.22 110.304 1359.35 111.177 1358.18 111.177C1357.02 111.177 1356.14 110.304 1356.14 109.139C1356.14 107.975 1357.02 107.102 1358.18 107.102C1359.35 107.102 1360.22 107.975 1360.22 109.139Z" fill="white"/>
<path d="M1375.57 111.177C1376.7 111.177 1377.61 110.265 1377.61 109.139C1377.61 108.014 1376.7 107.102 1375.57 107.102C1374.44 107.102 1373.53 108.014 1373.53 109.139C1373.53 110.265 1374.44 111.177 1375.57 111.177Z" fill="white"/>
<path d="M1395 109.139C1395 110.304 1394.13 111.177 1392.96 111.177C1391.79 111.177 1390.92 110.304 1390.92 109.139C1390.92 107.975 1391.79 107.102 1392.96 107.102C1394.03 107.102 1395 107.975 1395 109.139Z" fill="white"/>
<path d="M1256.08 123.6C1256.08 124.765 1255.21 125.638 1254.04 125.638C1252.87 125.638 1252 124.765 1252 123.6C1252 122.436 1252.87 121.562 1254.04 121.562C1255.21 121.562 1256.08 122.436 1256.08 123.6Z" fill="white"/>
<path d="M1273.47 123.6C1273.47 124.765 1272.6 125.638 1271.43 125.638C1270.26 125.638 1269.39 124.765 1269.39 123.6C1269.39 122.436 1270.26 121.562 1271.43 121.562C1272.5 121.562 1273.47 122.436 1273.47 123.6Z" fill="white"/>
<path d="M1290.76 123.6C1290.76 124.765 1289.89 125.638 1288.72 125.638C1287.56 125.638 1286.68 124.765 1286.68 123.6C1286.68 122.436 1287.56 121.562 1288.72 121.562C1289.89 121.562 1290.76 122.436 1290.76 123.6Z" fill="white"/>
<path d="M1308.15 123.6C1308.15 124.765 1307.28 125.638 1306.11 125.638C1304.95 125.638 1304.07 124.765 1304.07 123.6C1304.07 122.436 1304.95 121.562 1306.11 121.562C1307.28 121.562 1308.15 122.436 1308.15 123.6Z" fill="white"/>
<path d="M1325.54 123.6C1325.54 124.765 1324.67 125.638 1323.5 125.638C1322.33 125.638 1321.46 124.765 1321.46 123.6C1321.46 122.436 1322.33 121.562 1323.5 121.562C1324.57 121.562 1325.54 122.436 1325.54 123.6Z" fill="white"/>
<path d="M1342.93 123.6C1342.93 124.765 1342.05 125.638 1340.89 125.638C1339.72 125.638 1338.85 124.765 1338.85 123.6C1338.85 122.436 1339.72 121.562 1340.89 121.562C1342.05 121.562 1342.93 122.436 1342.93 123.6Z" fill="white"/>
<path d="M1360.22 123.6C1360.22 124.765 1359.35 125.638 1358.18 125.638C1357.02 125.638 1356.14 124.765 1356.14 123.6C1356.14 122.436 1357.02 121.562 1358.18 121.562C1359.35 121.562 1360.22 122.436 1360.22 123.6Z" fill="white"/>
<path d="M1377.61 123.6C1377.61 124.765 1376.74 125.638 1375.57 125.638C1374.41 125.638 1373.53 124.765 1373.53 123.6C1373.53 122.436 1374.41 121.562 1375.57 121.562C1376.74 121.562 1377.61 122.436 1377.61 123.6Z" fill="white"/>
<path d="M1395 123.6C1395 124.765 1394.13 125.638 1392.96 125.638C1391.79 125.638 1390.92 124.765 1390.92 123.6C1390.92 122.436 1391.79 121.562 1392.96 121.562C1394.03 121.562 1395 122.436 1395 123.6Z" fill="white"/>
<path d="M1256.08 137.962C1256.08 139.126 1255.21 140 1254.04 140C1252.87 140 1252 139.126 1252 137.962C1252 136.797 1252.87 135.924 1254.04 135.924C1255.21 135.924 1256.08 136.894 1256.08 137.962Z" fill="white"/>
<path d="M1273.47 137.962C1273.47 139.126 1272.6 140 1271.43 140C1270.26 140 1269.39 139.126 1269.39 137.962C1269.39 136.797 1270.26 135.924 1271.43 135.924C1272.5 135.924 1273.47 136.894 1273.47 137.962Z" fill="white"/>
<path d="M1290.76 137.962C1290.76 139.126 1289.89 140 1288.72 140C1287.56 140 1286.68 139.126 1286.68 137.962C1286.68 136.797 1287.56 135.924 1288.72 135.924C1289.89 135.924 1290.76 136.894 1290.76 137.962Z" fill="white"/>
<path d="M1308.15 137.962C1308.15 139.126 1307.28 140 1306.11 140C1304.95 140 1304.07 139.126 1304.07 137.962C1304.07 136.797 1304.95 135.924 1306.11 135.924C1307.28 135.924 1308.15 136.894 1308.15 137.962Z" fill="white"/>
<path d="M1325.54 137.962C1325.54 139.126 1324.67 140 1323.5 140C1322.33 140 1321.46 139.126 1321.46 137.962C1321.46 136.797 1322.33 135.924 1323.5 135.924C1324.57 135.924 1325.54 136.894 1325.54 137.962Z" fill="white"/>
<path d="M1342.93 137.962C1342.93 139.126 1342.05 140 1340.89 140C1339.72 140 1338.85 139.126 1338.85 137.962C1338.85 136.797 1339.72 135.924 1340.89 135.924C1342.05 135.924 1342.93 136.894 1342.93 137.962Z" fill="white"/>
<path d="M1360.22 137.962C1360.22 139.126 1359.35 140 1358.18 140C1357.02 140 1356.14 139.126 1356.14 137.962C1356.14 136.797 1357.02 135.924 1358.18 135.924C1359.35 135.924 1360.22 136.894 1360.22 137.962Z" fill="white"/>
<path d="M1377.61 137.962C1377.61 139.126 1376.74 140 1375.57 140C1374.41 140 1373.53 139.126 1373.53 137.962C1373.53 136.797 1374.41 135.924 1375.57 135.924C1376.74 135.924 1377.61 136.894 1377.61 137.962Z" fill="white"/>
<path d="M1395 137.962C1395 139.126 1394.13 140 1392.96 140C1391.79 140 1390.92 139.126 1390.92 137.962C1390.92 136.797 1391.79 135.924 1392.96 135.924C1394.03 135.924 1395 136.894 1395 137.962Z" fill="white"/>
</g>
<path opacity="0.6" d="M245 116.978C235.638 126.341 220.384 126.341 211.022 116.978C201.659 107.616 201.659 92.3624 211.022 83L245 116.978Z" fill="white"/>
</g>
<defs>
<clipPath id="clip0_2492_15119">
<rect width="1920" height="1570" fill="white"/>
</clipPath>
<clipPath id="clip1_2492_15119">
<rect width="258" height="258" fill="white" transform="translate(1788 1407)"/>
</clipPath>
<clipPath id="clip2_2492_15119">
<rect width="143" height="105" fill="white" transform="translate(343 1367)"/>
</clipPath>
<clipPath id="clip3_2492_15119">
<rect width="145" height="145" fill="white" transform="translate(75 849)"/>
</clipPath>
<clipPath id="clip4_2492_15119">
<rect width="143" height="105" fill="white" transform="translate(1252 35)"/>
</clipPath>
</defs>
</svg>
